# xmcd CD database file
#
# Track frame offsets:
#	150
#	22061
#	42005
#	74375
#	96713
#	119520
#	132327
#	155260
#	174447
#	195843
#	216129
#	231965
#	249465
#	268134
#	284798
#
# Disc length: 3960 seconds
#
# Revision: 0
# Processed by: cddbd v1.5.2PL0 Copyright (c) Steve Scherf et al.
# Submitted via: CDex 1.51
#
DISCID=e30f760f
DTITLE=Blue Mother Tupelo - Heaven And Earth
DYEAR=2009
DGENRE=Blues
TTITLE0=Always Lookin'
TTITLE1=Heaven And Earth
TTITLE2=Give It Away - Hard Times
TTITLE3=The War
TTITLE4=Goin' Down Midnight
TTITLE5=Wandering Soul
TTITLE6=Tupelo
TTITLE7=Ramblin' Train
TTITLE8=Biloxi
TTITLE9=Hand In Hand
TTITLE10=Wish I Was In Heaven Sitting Down
TTITLE11=High In The Sky
TTITLE12=Runnin'  'Round
TTITLE13=Gustard Bellue
TTITLE14=Gustard Bellue (ending)
EXTD=YEAR: 2009
EXTT0=
EXTT1=
EXTT2=
EXTT3=
EXTT4=
EXTT5=
EXTT6=
EXTT7=
EXTT8=
EXTT9=
EXTT10=
EXTT11=
EXTT12=
EXTT13=
EXTT14=
PLAYORDER=
